<svg id="Layer_1" data-name="Layer 1" xmlns="http://www.w3.org/2000/svg" viewBox="0 0 822.95 303.62"><defs><style>.cls-1{font-size:180.78px;fill:#231f20;font-family:GalliardStd-Black, ITC Galliard Std;}.cls-2{letter-spacing:-0.11em;}.cls-3{fill:#008ace;}.cls-4{fill:#010101;}.cls-5,.cls-7{fill:#fff;}.cls-5{stroke:#010101;stroke-width:1.36px;}.cls-6{fill:#81c343;}</style></defs><title>Artboard 2</title><text class="cls-1" transform="translate(234.8 229.84)">NE<tspan class="cls-2" x="281.48" y="0">W</tspan><tspan x="451.23" y="0">A</tspan></text><path class="cls-3" d="M69.78,79.27C35.2,118-.77,182.49,1.5,234.73,2.72,327,135.91,305,95.89,211.78,81.81,177.15,52.86,113,69.78,79.27Z"/><path class="cls-4" d="M69.78,73.53c-17.48,17.23-32,38.23-43.44,59.81C14,156.5,5.05,181.5,1.7,207.57c-4.11,31.92-3.14,75.88,30.79,91.51,22.08,10.17,49.87,2.8,63.37-17.48,9.47-14.23,9.26-33.07,8-49.41-1.5-19.33-10.76-36.92-17.84-54.65-6.51-16.31-12.5-32.9-16.72-50-3.38-13.68-5.85-26.77.72-39.87,1.39-2.77.69-7.8.61-10.76,0-.64-.7-6.91-1.08-6.11C65.23,80,64.14,90,63.78,100a167.46,167.46,0,0,0,3,36.8c4.33,23.06,12.91,45.21,21.71,66.86,3.71,9.12,7.91,18.14,10.92,27.52a77.78,77.78,0,0,1,2.85,12.44c.16,1.07.2,3.66.19,1,0-2.92-.11-.23-.32,1.08C100,258.23,92.37,269.1,81.88,276c-20.76,13.56-49.77,9.63-66.15-8.87C6.11,256.23,1.65,240.72,2.52,226.72c1.63-26.17,12.53-52.29,24.31-75.36A402.77,402.77,0,0,1,69.78,85c1-1.22.57-4.3.57-5.73C70.35,78.8,69.69,73.62,69.78,73.53Z"/><path class="cls-5" d="M12.27,219.64a12.82,12.82,0,1,0,14.64-10.7A12.82,12.82,0,0,0,12.27,219.64Z"/><path class="cls-5" d="M41.5,236.75a7.69,7.69,0,1,0,8.78-6.42A7.71,7.71,0,0,0,41.5,236.75Z"/><path class="cls-6" d="M144.5,266.93C144.8,217.72,30.74,75.84,125,56.5c45.21-8.75,93,28.88,97,71.79,2.09,27.3-6.06,51.26-17.28,75.81-10.41,23.33-39.08,53-55.23,72.51-1.41,1.69-3.31,4.91-4.14,6.13C144.64,278.64,144.47,272.26,144.5,266.93Z"/><path class="cls-4" d="M144.94,266.93c0-12.5-3.76-24.18-8-35.83-5.7-15.77-12.86-30.9-19.77-46.16-7.29-16.12-14.52-32.32-20.28-49.07a195.37,195.37,0,0,1-6.65-23.58,101.25,101.25,0,0,1-1.6-10.11c-.14-1.3-.19-2.34-.21-3.21.06,2.26.08,0,.19-1C90,85.42,98.07,75.34,109.07,69.7c18.5-9.48,41.12-7.87,59.9-.24,21.68,8.81,39.84,26.65,48.56,48.38,10.58,26.36-2.44,56.1-13.44,80.25-7.62,16.73-20.12,31.25-31.92,45.15-5.82,6.85-11.83,13.54-17.59,20.44-2.31,2.77-4.69,5.5-6.71,8.48-.31.46-2.41,3.11-2.33,3.59a52.68,52.68,0,0,1-.44-8.81c0-.41.09-6-.6-6s-.59,5.57-.6,6a127.12,127.12,0,0,0,1.18,21.55c0,.28.13,1.23.51.67,6.54-9.65,14.84-18.09,22.47-26.9,8.33-9.61,16.48-19.39,24-29.67,15.45-21.13,25.76-47.35,29.59-73.21,3.69-24.91,2.31-51-11.91-72.49A90.94,90.94,0,0,0,154.3,49c-17.39-3.86-38.19-1.6-52.58,9.69C91.42,66.75,88,79.08,87.15,91.61,84.83,125.38,98.29,157.1,112,187.18q10.38,22.75,20.95,45.43a168.88,168.88,0,0,1,7.6,19c1.53,4.72,3.49,10.52,3.52,15.31,0,.3-.07,4.33.43,4.33S144.94,267.23,144.94,266.93Z"/><path class="cls-7" d="M153.56,263.5c7.24-21,10-43.36,11.19-65.41a375.65,375.65,0,0,0-3.69-76.43C153.66,73.44,131.34,24.15,86.62,0c-.28-.15-.8,7.56-.8,8,0,1.16-.54,7.26.8,8,40,21.6,62.89,64.37,71.87,107.58,8.9,42.79,7.78,89.74-5.17,131.6a17.23,17.23,0,0,0-.3,5.33c0,.36.41,3.37.53,3Z"/><path class="cls-7" d="M190.8,163.69a128.38,128.38,0,0,0-12.87-26.29c-4.2-6.68-9.62-13.91-16.69-17.72.56.3-1.35,6.77,0,7.76a67.17,67.17,0,0,1,17.3,18.84c4.4,6.91,7.37,15,12.14,21.61-.19-.26.43-3.29.12-4.2Z"/><path class="cls-7" d="M131.72,121.67c4.47-2.54,4.23-11.25,4.65-15.62.82-8.49,1.36-17,7.71-23.29,1.25-1.25-.67-7.27,0-7.72-5.73,3.86-6.74,12.43-7.53,18.69-1,7.94-.27,17-4.88,24-.38.57.23,3.85.05,4Z"/><path class="cls-7" d="M144.75,205.47c1.8-1,2.85-4.61,3.71-6.39,1.62-3.34,3.1-6.75,4.62-10.14,2.54-5.67,5.63-10.76,8.58-16.15.39-.71.26-7.18-.1-7.12-1.56.25-3,3.83-3.61,5-1.71,3.18-3.14,6.53-4.55,9.85-2.92,6.87-6.43,13.88-8.71,21a38.63,38.63,0,0,0,.05,3.94Z"/><path class="cls-7" d="M174.68,223.66a104.5,104.5,0,0,0-3.9-14.18c-1-2.81-2.27-8.42-4.89-10.19.29.2-.54,5.44-.09,6.41,3.37,7.14,6.93,13.56,8.68,21.41a12.75,12.75,0,0,0,.2-3.46Z"/><path class="cls-4" d="M151.88,266c7.25-21,10-43.36,11.19-65.41a375.81,375.81,0,0,0-3.69-76.42C152,75.92,129.67,26.65,85,2.49c-.28-.15-.8,7.56-.8,8,0,1.16-.54,7.26.8,8C125,40.06,147.84,82.82,156.81,126c8.89,42.79,7.78,89.74-5.17,131.6a17.23,17.23,0,0,0-.3,5.33c0,.36.41,3.37.53,3Z"/><path class="cls-4" d="M189.11,166.18a128,128,0,0,0-12.86-26.31c-4.2-6.69-9.62-13.91-16.69-17.74.57.31-1.36,6.77,0,7.76a67.37,67.37,0,0,1,17.3,18.85c4.4,6.92,7.36,15,12.13,21.62-.19-.26.42-3.29.12-4.2Z"/><path class="cls-4" d="M130,124.15c4.47-2.54,4.23-11.24,4.65-15.62.82-8.49,1.36-17,7.71-23.29,1.25-1.25-.67-7.27,0-7.72-5.73,3.86-6.74,12.43-7.53,18.69-1,7.94-.27,17-4.88,24-.38.57.23,3.85.05,4Z"/><path class="cls-4" d="M143.06,208c1.8-1,2.86-4.61,3.72-6.38,1.62-3.34,3.1-6.75,4.62-10.14,2.54-5.68,5.63-10.77,8.59-16.16.39-.71.26-7.18-.1-7.12-1.56.26-3,3.84-3.62,5-1.71,3.18-3.14,6.53-4.55,9.85-2.92,6.87-6.43,13.88-8.72,21a37.77,37.77,0,0,0,.05,3.94Z"/><path class="cls-4" d="M173,226.14A104.62,104.62,0,0,0,169.1,212c-1-2.82-2.27-8.41-4.88-10.2.29.2-.54,5.44-.09,6.41,3.35,7.15,6.92,13.57,8.66,21.42a12.75,12.75,0,0,0,.2-3.46Z"/></svg>